<mxfile host="app.diagrams.net" modified="2021-06-09T10:22:29.376Z" agent="5.0 (Windows NT 10.0; Win64; x64) AppleWebKit/537.36 (KHTML, like Gecko) Chrome/88.0.4324.182 Safari/537.36" etag="b1pquXrgDKqtAC56Q08Y" version="14.7.5" type="github" pages="2">
  <diagram id="_C_IYXRYWDwCl6F7tw9B" name="第 1 页">
    <mxGraphModel dx="866" dy="522" grid="1" gridSize="10" guides="1" tooltips="1" connect="1" arrows="1" fold="1" page="1" pageScale="1" pageWidth="827" pageHeight="1169" math="0" shadow="0">
      <root>
        <mxCell id="0" />
        <mxCell id="1" parent="0" />
        <mxCell id="7rxP7pzXrHZdhUXxClqP-44" value="" style="rounded=1;whiteSpace=wrap;html=1;dashed=1;dashPattern=1 2;" parent="1" vertex="1">
          <mxGeometry x="40" y="840" width="260" height="160" as="geometry" />
        </mxCell>
        <mxCell id="7rxP7pzXrHZdhUXxClqP-1" value="三层架构" style="text;html=1;strokeColor=none;fillColor=none;align=center;verticalAlign=middle;whiteSpace=wrap;rounded=0;" parent="1" vertex="1">
          <mxGeometry x="40" y="40" width="70" height="20" as="geometry" />
        </mxCell>
        <mxCell id="7rxP7pzXrHZdhUXxClqP-2" value="" style="rounded=0;whiteSpace=wrap;html=1;dashed=1;fillColor=#f5f5f5;strokeColor=#666666;fontColor=#333333;" parent="1" vertex="1">
          <mxGeometry x="80" y="100" width="310" height="60" as="geometry" />
        </mxCell>
        <mxCell id="7rxP7pzXrHZdhUXxClqP-3" value="sqlsession" style="rounded=1;whiteSpace=wrap;html=1;" parent="1" vertex="1">
          <mxGeometry x="90" y="115" width="70" height="30" as="geometry" />
        </mxCell>
        <mxCell id="7rxP7pzXrHZdhUXxClqP-5" value="接口层" style="text;html=1;strokeColor=none;fillColor=none;align=center;verticalAlign=middle;whiteSpace=wrap;rounded=0;" parent="1" vertex="1">
          <mxGeometry x="50" y="100" width="20" height="50" as="geometry" />
        </mxCell>
        <mxCell id="7rxP7pzXrHZdhUXxClqP-6" value="mapper" style="rounded=1;whiteSpace=wrap;html=1;" parent="1" vertex="1">
          <mxGeometry x="180" y="110" width="80" height="30" as="geometry" />
        </mxCell>
        <mxCell id="7rxP7pzXrHZdhUXxClqP-7" value="sqlsessionfactory" style="rounded=1;whiteSpace=wrap;html=1;" parent="1" vertex="1">
          <mxGeometry x="280" y="120" width="100" height="30" as="geometry" />
        </mxCell>
        <mxCell id="7rxP7pzXrHZdhUXxClqP-8" value="" style="rounded=0;whiteSpace=wrap;html=1;dashed=1;fillColor=#f5f5f5;strokeColor=#666666;fontColor=#333333;" parent="1" vertex="1">
          <mxGeometry x="80" y="160" width="420" height="70" as="geometry" />
        </mxCell>
        <mxCell id="7rxP7pzXrHZdhUXxClqP-9" value="配置解析" style="rounded=1;whiteSpace=wrap;html=1;fillColor=#f8cecc;strokeColor=#b85450;" parent="1" vertex="1">
          <mxGeometry x="90" y="180" width="60" height="20" as="geometry" />
        </mxCell>
        <mxCell id="7rxP7pzXrHZdhUXxClqP-10" value="参数映射" style="rounded=1;whiteSpace=wrap;html=1;fillColor=#f8cecc;strokeColor=#b85450;" parent="1" vertex="1">
          <mxGeometry x="160" y="190" width="60" height="20" as="geometry" />
        </mxCell>
        <mxCell id="7rxP7pzXrHZdhUXxClqP-11" value="sql解析" style="rounded=1;whiteSpace=wrap;html=1;fillColor=#f8cecc;strokeColor=#b85450;" parent="1" vertex="1">
          <mxGeometry x="230" y="180" width="50" height="20" as="geometry" />
        </mxCell>
        <mxCell id="7rxP7pzXrHZdhUXxClqP-12" value="处理层" style="text;html=1;strokeColor=none;fillColor=none;align=center;verticalAlign=middle;whiteSpace=wrap;rounded=0;" parent="1" vertex="1">
          <mxGeometry x="50" y="170" width="20" height="50" as="geometry" />
        </mxCell>
        <mxCell id="7rxP7pzXrHZdhUXxClqP-13" value="sql的执行" style="rounded=1;whiteSpace=wrap;html=1;fillColor=#f8cecc;strokeColor=#b85450;" parent="1" vertex="1">
          <mxGeometry x="290" y="190" width="60" height="20" as="geometry" />
        </mxCell>
        <mxCell id="7rxP7pzXrHZdhUXxClqP-14" value="结果集的映射&amp;nbsp;" style="rounded=1;whiteSpace=wrap;html=1;fillColor=#f8cecc;strokeColor=#b85450;" parent="1" vertex="1">
          <mxGeometry x="357" y="173" width="80" height="20" as="geometry" />
        </mxCell>
        <mxCell id="7rxP7pzXrHZdhUXxClqP-15" value="插件" style="rounded=1;whiteSpace=wrap;html=1;fillColor=#f8cecc;strokeColor=#b85450;" parent="1" vertex="1">
          <mxGeometry x="440" y="196" width="54" height="20" as="geometry" />
        </mxCell>
        <mxCell id="7rxP7pzXrHZdhUXxClqP-18" value="" style="rounded=0;whiteSpace=wrap;html=1;dashed=1;fillColor=#f5f5f5;strokeColor=#666666;fontColor=#333333;" parent="1" vertex="1">
          <mxGeometry x="80" y="230" width="540" height="60" as="geometry" />
        </mxCell>
        <mxCell id="7rxP7pzXrHZdhUXxClqP-19" value="类型转换" style="rounded=1;whiteSpace=wrap;html=1;fillColor=#fff2cc;strokeColor=#d6b656;" parent="1" vertex="1">
          <mxGeometry x="90" y="250" width="60" height="20" as="geometry" />
        </mxCell>
        <mxCell id="7rxP7pzXrHZdhUXxClqP-20" value="日志模块" style="rounded=1;whiteSpace=wrap;html=1;fillColor=#fff2cc;strokeColor=#d6b656;" parent="1" vertex="1">
          <mxGeometry x="160" y="260" width="60" height="20" as="geometry" />
        </mxCell>
        <mxCell id="7rxP7pzXrHZdhUXxClqP-21" value="Binding" style="rounded=1;whiteSpace=wrap;html=1;fillColor=#fff2cc;strokeColor=#d6b656;" parent="1" vertex="1">
          <mxGeometry x="230" y="250" width="50" height="20" as="geometry" />
        </mxCell>
        <mxCell id="7rxP7pzXrHZdhUXxClqP-22" value="支撑层" style="text;html=1;strokeColor=none;fillColor=none;align=center;verticalAlign=middle;whiteSpace=wrap;rounded=0;" parent="1" vertex="1">
          <mxGeometry x="50" y="240" width="20" height="50" as="geometry" />
        </mxCell>
        <mxCell id="7rxP7pzXrHZdhUXxClqP-23" value="资源加载" style="rounded=1;whiteSpace=wrap;html=1;fillColor=#fff2cc;strokeColor=#d6b656;" parent="1" vertex="1">
          <mxGeometry x="290" y="260" width="60" height="20" as="geometry" />
        </mxCell>
        <mxCell id="7rxP7pzXrHZdhUXxClqP-24" value="数据源" style="rounded=1;whiteSpace=wrap;html=1;fillColor=#fff2cc;strokeColor=#d6b656;" parent="1" vertex="1">
          <mxGeometry x="357" y="243" width="80" height="20" as="geometry" />
        </mxCell>
        <mxCell id="7rxP7pzXrHZdhUXxClqP-25" value="缓存管理" style="rounded=1;whiteSpace=wrap;html=1;fillColor=#fff2cc;strokeColor=#d6b656;" parent="1" vertex="1">
          <mxGeometry x="383" y="266" width="54" height="20" as="geometry" />
        </mxCell>
        <mxCell id="7rxP7pzXrHZdhUXxClqP-26" value="解析器" style="rounded=1;whiteSpace=wrap;html=1;fillColor=#fff2cc;strokeColor=#d6b656;" parent="1" vertex="1">
          <mxGeometry x="447" y="243" width="54" height="20" as="geometry" />
        </mxCell>
        <mxCell id="7rxP7pzXrHZdhUXxClqP-27" value="事务管理" style="rounded=1;whiteSpace=wrap;html=1;fillColor=#fff2cc;strokeColor=#d6b656;" parent="1" vertex="1">
          <mxGeometry x="484" y="266" width="54" height="20" as="geometry" />
        </mxCell>
        <mxCell id="7rxP7pzXrHZdhUXxClqP-28" value="反射工具" style="rounded=1;whiteSpace=wrap;html=1;fillColor=#fff2cc;strokeColor=#d6b656;" parent="1" vertex="1">
          <mxGeometry x="552" y="255" width="54" height="20" as="geometry" />
        </mxCell>
        <mxCell id="7rxP7pzXrHZdhUXxClqP-29" value="mybatis&amp;nbsp; 执行一条SQL 语句的流程" style="text;html=1;strokeColor=none;fillColor=none;align=center;verticalAlign=middle;whiteSpace=wrap;rounded=0;dashed=1;" parent="1" vertex="1">
          <mxGeometry x="40" y="330" width="200" height="30" as="geometry" />
        </mxCell>
        <mxCell id="7rxP7pzXrHZdhUXxClqP-30" value="sqlsession" style="rounded=1;whiteSpace=wrap;html=1;dashed=1;" parent="1" vertex="1">
          <mxGeometry x="130" y="390" width="100" height="30" as="geometry" />
        </mxCell>
        <mxCell id="7rxP7pzXrHZdhUXxClqP-32" value="Executor" style="rounded=1;whiteSpace=wrap;html=1;dashed=1;" parent="1" vertex="1">
          <mxGeometry x="120" y="460" width="120" height="40" as="geometry" />
        </mxCell>
        <mxCell id="7rxP7pzXrHZdhUXxClqP-33" value="StatementHandler" style="rounded=1;whiteSpace=wrap;html=1;dashed=1;" parent="1" vertex="1">
          <mxGeometry x="120" y="530" width="120" height="40" as="geometry" />
        </mxCell>
        <mxCell id="7rxP7pzXrHZdhUXxClqP-34" value="ParameterHandler" style="rounded=1;whiteSpace=wrap;html=1;dashed=1;" parent="1" vertex="1">
          <mxGeometry x="50" y="600" width="120" height="40" as="geometry" />
        </mxCell>
        <mxCell id="7rxP7pzXrHZdhUXxClqP-35" value="Statement" style="rounded=1;whiteSpace=wrap;html=1;dashed=1;" parent="1" vertex="1">
          <mxGeometry x="50" y="670" width="120" height="40" as="geometry" />
        </mxCell>
        <mxCell id="7rxP7pzXrHZdhUXxClqP-36" value="ResultSetHandler" style="rounded=1;whiteSpace=wrap;html=1;dashed=1;" parent="1" vertex="1">
          <mxGeometry x="200" y="600" width="120" height="40" as="geometry" />
        </mxCell>
        <mxCell id="7rxP7pzXrHZdhUXxClqP-37" value="ResultSet" style="rounded=1;whiteSpace=wrap;html=1;dashed=1;" parent="1" vertex="1">
          <mxGeometry x="200" y="670" width="120" height="40" as="geometry" />
        </mxCell>
        <mxCell id="7rxP7pzXrHZdhUXxClqP-41" value="" style="rounded=1;whiteSpace=wrap;html=1;fillColor=#f5f5f5;strokeColor=#666666;fontColor=#333333;" parent="1" vertex="1">
          <mxGeometry x="60" y="920" width="140" height="70" as="geometry" />
        </mxCell>
        <mxCell id="7rxP7pzXrHZdhUXxClqP-42" value="Reflector" style="text;html=1;align=center;verticalAlign=middle;resizable=0;points=[];autosize=1;strokeColor=none;" parent="1" vertex="1">
          <mxGeometry x="130" y="920" width="60" height="20" as="geometry" />
        </mxCell>
        <mxCell id="7rxP7pzXrHZdhUXxClqP-43" value="Invoker" style="rounded=1;whiteSpace=wrap;html=1;dashed=1;fillColor=#dae8fc;strokeColor=#6c8ebf;" parent="1" vertex="1">
          <mxGeometry x="90" y="950" width="62" height="30" as="geometry" />
        </mxCell>
        <mxCell id="7rxP7pzXrHZdhUXxClqP-45" value="&lt;font color=&quot;#ff3333&quot;&gt;ReflectorFactory&lt;/font&gt;" style="text;html=1;align=center;verticalAlign=middle;resizable=0;points=[];autosize=1;strokeColor=none;" parent="1" vertex="1">
          <mxGeometry x="190" y="840" width="100" height="20" as="geometry" />
        </mxCell>
        <mxCell id="7rxP7pzXrHZdhUXxClqP-46" value="ConcurrentHashMap: &lt;br&gt;k: Class , value : Reflector 对象" style="rounded=1;whiteSpace=wrap;html=1;fillColor=#e1d5e7;strokeColor=#9673a6;" parent="1" vertex="1">
          <mxGeometry x="95" y="870" width="190" height="40" as="geometry" />
        </mxCell>
        <mxCell id="7rxP7pzXrHZdhUXxClqP-47" value="" style="rounded=1;whiteSpace=wrap;html=1;dashed=1;dashPattern=1 2;" parent="1" vertex="1">
          <mxGeometry x="357" y="850" width="283" height="110" as="geometry" />
        </mxCell>
        <mxCell id="7rxP7pzXrHZdhUXxClqP-48" value="MetaClass&lt;br&gt;" style="text;html=1;align=center;verticalAlign=middle;resizable=0;points=[];autosize=1;strokeColor=none;" parent="1" vertex="1">
          <mxGeometry x="375" y="850" width="70" height="20" as="geometry" />
        </mxCell>
        <mxCell id="7rxP7pzXrHZdhUXxClqP-49" value="Reflector" style="rounded=1;whiteSpace=wrap;html=1;" parent="1" vertex="1">
          <mxGeometry x="375" y="900" width="90" height="40" as="geometry" />
        </mxCell>
        <mxCell id="7rxP7pzXrHZdhUXxClqP-50" value="MetaClass 会将传入的Class对象封装成一个Reflector 对象" style="text;html=1;align=center;verticalAlign=middle;resizable=0;points=[];autosize=1;strokeColor=none;" parent="1" vertex="1">
          <mxGeometry x="357" y="970" width="320" height="20" as="geometry" />
        </mxCell>
        <mxCell id="FBKagqanlniehu2E-l5q-1" value="执行步骤" style="text;html=1;align=center;verticalAlign=middle;resizable=0;points=[];autosize=1;strokeColor=#b85450;fillColor=#f8cecc;" vertex="1" parent="1">
          <mxGeometry x="40" y="1040" width="60" height="20" as="geometry" />
        </mxCell>
        <mxCell id="FBKagqanlniehu2E-l5q-2" value="1. 读取配置文件" style="text;html=1;strokeColor=none;fillColor=none;align=left;verticalAlign=middle;whiteSpace=wrap;rounded=0;" vertex="1" parent="1">
          <mxGeometry x="60" y="1080" width="340" height="20" as="geometry" />
        </mxCell>
        <mxCell id="FBKagqanlniehu2E-l5q-3" value="2. 创建SqlSessionFactoryBuilder 对象" style="text;html=1;strokeColor=none;fillColor=none;align=left;verticalAlign=middle;whiteSpace=wrap;rounded=0;" vertex="1" parent="1">
          <mxGeometry x="60" y="1110" width="340" height="20" as="geometry" />
        </mxCell>
        <mxCell id="FBKagqanlniehu2E-l5q-4" value="3. 通过SqlSessionFactoryBuilder 对象 创建 SqlSessionFactory" style="text;html=1;strokeColor=none;fillColor=none;align=left;verticalAlign=middle;whiteSpace=wrap;rounded=0;" vertex="1" parent="1">
          <mxGeometry x="60" y="1140" width="340" height="20" as="geometry" />
        </mxCell>
        <mxCell id="FBKagqanlniehu2E-l5q-5" value="4. 通过 SqlSessionFactory 创建 SqlSession" style="text;html=1;strokeColor=none;fillColor=none;align=left;verticalAlign=middle;whiteSpace=wrap;rounded=0;" vertex="1" parent="1">
          <mxGeometry x="60" y="1169" width="340" height="20" as="geometry" />
        </mxCell>
        <mxCell id="FBKagqanlniehu2E-l5q-6" value="5. 调用接口访问 数据库" style="text;html=1;strokeColor=none;fillColor=none;align=left;verticalAlign=middle;whiteSpace=wrap;rounded=0;" vertex="1" parent="1">
          <mxGeometry x="60" y="1200" width="340" height="20" as="geometry" />
        </mxCell>
      </root>
    </mxGraphModel>
  </diagram>
  <diagram id="4QHsV8S6tt5BdKvtC0Y2" name="执行流程">
    <mxGraphModel dx="866" dy="522" grid="1" gridSize="10" guides="1" tooltips="1" connect="1" arrows="1" fold="1" page="1" pageScale="1" pageWidth="827" pageHeight="1169" math="0" shadow="0">
      <root>
        <mxCell id="ARLmOl4ktkuHFDdU4ZW2-0" />
        <mxCell id="ARLmOl4ktkuHFDdU4ZW2-1" parent="ARLmOl4ktkuHFDdU4ZW2-0" />
        <mxCell id="FtkUFHBReNDvAZ_2gTk3-8" style="edgeStyle=orthogonalEdgeStyle;rounded=0;orthogonalLoop=1;jettySize=auto;html=1;exitX=1;exitY=0.5;exitDx=0;exitDy=0;" edge="1" parent="ARLmOl4ktkuHFDdU4ZW2-1" source="FtkUFHBReNDvAZ_2gTk3-7">
          <mxGeometry relative="1" as="geometry">
            <mxPoint x="480" y="205" as="targetPoint" />
          </mxGeometry>
        </mxCell>
        <mxCell id="FtkUFHBReNDvAZ_2gTk3-7" value="" style="rounded=1;whiteSpace=wrap;html=1;align=center;fillColor=#d5e8d4;strokeColor=#82b366;" vertex="1" parent="ARLmOl4ktkuHFDdU4ZW2-1">
          <mxGeometry x="110" y="190" width="210" height="30" as="geometry" />
        </mxCell>
        <mxCell id="ARLmOl4ktkuHFDdU4ZW2-3" value="执行流程" style="text;html=1;align=center;verticalAlign=middle;resizable=0;points=[];autosize=1;strokeColor=#b85450;fillColor=#f8cecc;" vertex="1" parent="ARLmOl4ktkuHFDdU4ZW2-1">
          <mxGeometry x="40" y="40" width="60" height="20" as="geometry" />
        </mxCell>
        <mxCell id="FtkUFHBReNDvAZ_2gTk3-1" style="edgeStyle=orthogonalEdgeStyle;rounded=0;orthogonalLoop=1;jettySize=auto;html=1;exitX=1;exitY=0.5;exitDx=0;exitDy=0;entryX=0;entryY=0.5;entryDx=0;entryDy=0;" edge="1" parent="ARLmOl4ktkuHFDdU4ZW2-1" source="FtkUFHBReNDvAZ_2gTk3-0" target="FtkUFHBReNDvAZ_2gTk3-2">
          <mxGeometry relative="1" as="geometry">
            <mxPoint x="370" y="120" as="targetPoint" />
            <Array as="points" />
          </mxGeometry>
        </mxCell>
        <mxCell id="FtkUFHBReNDvAZ_2gTk3-0" value="mybatis-config.xml 文件" style="rounded=1;whiteSpace=wrap;html=1;align=center;fillColor=#dae8fc;strokeColor=#6c8ebf;" vertex="1" parent="ARLmOl4ktkuHFDdU4ZW2-1">
          <mxGeometry x="110" y="105" width="150" height="30" as="geometry" />
        </mxCell>
        <mxCell id="FtkUFHBReNDvAZ_2gTk3-9" style="edgeStyle=elbowEdgeStyle;rounded=1;orthogonalLoop=1;jettySize=auto;html=1;exitX=0.5;exitY=1;exitDx=0;exitDy=0;elbow=vertical;" edge="1" parent="ARLmOl4ktkuHFDdU4ZW2-1" source="FtkUFHBReNDvAZ_2gTk3-2">
          <mxGeometry relative="1" as="geometry">
            <mxPoint x="400" y="205" as="targetPoint" />
          </mxGeometry>
        </mxCell>
        <mxCell id="FtkUFHBReNDvAZ_2gTk3-2" value="InputStream" style="rounded=1;whiteSpace=wrap;html=1;align=center;" vertex="1" parent="ARLmOl4ktkuHFDdU4ZW2-1">
          <mxGeometry x="490" y="108.75" width="100" height="22.5" as="geometry" />
        </mxCell>
        <mxCell id="FtkUFHBReNDvAZ_2gTk3-3" value="Resources.getResourceAsStream()" style="text;html=1;align=center;verticalAlign=middle;resizable=0;points=[];autosize=1;strokeColor=none;" vertex="1" parent="ARLmOl4ktkuHFDdU4ZW2-1">
          <mxGeometry x="270" y="95" width="200" height="20" as="geometry" />
        </mxCell>
        <mxCell id="FtkUFHBReNDvAZ_2gTk3-11" style="edgeStyle=elbowEdgeStyle;rounded=1;orthogonalLoop=1;jettySize=auto;elbow=vertical;html=1;exitX=1;exitY=0.5;exitDx=0;exitDy=0;" edge="1" parent="ARLmOl4ktkuHFDdU4ZW2-1" source="FtkUFHBReNDvAZ_2gTk3-5">
          <mxGeometry relative="1" as="geometry">
            <mxPoint x="680" y="205" as="targetPoint" />
          </mxGeometry>
        </mxCell>
        <mxCell id="FtkUFHBReNDvAZ_2gTk3-14" style="edgeStyle=elbowEdgeStyle;rounded=1;orthogonalLoop=1;jettySize=auto;elbow=vertical;html=1;exitX=0.5;exitY=1;exitDx=0;exitDy=0;dashed=1;entryX=0.436;entryY=-0.133;entryDx=0;entryDy=0;entryPerimeter=0;" edge="1" parent="ARLmOl4ktkuHFDdU4ZW2-1" source="FtkUFHBReNDvAZ_2gTk3-5" target="FtkUFHBReNDvAZ_2gTk3-16">
          <mxGeometry relative="1" as="geometry">
            <mxPoint x="544" y="265" as="targetPoint" />
          </mxGeometry>
        </mxCell>
        <mxCell id="FtkUFHBReNDvAZ_2gTk3-5" value="调用build() 方法" style="rounded=1;whiteSpace=wrap;html=1;align=center;fillColor=#b0e3e6;strokeColor=#0e8088;" vertex="1" parent="ARLmOl4ktkuHFDdU4ZW2-1">
          <mxGeometry x="484" y="187.5" width="120" height="35" as="geometry" />
        </mxCell>
        <mxCell id="FtkUFHBReNDvAZ_2gTk3-6" value="创建SqlSessionFactoryBuilder 对象" style="text;html=1;align=center;verticalAlign=middle;resizable=0;points=[];autosize=1;strokeColor=none;" vertex="1" parent="ARLmOl4ktkuHFDdU4ZW2-1">
          <mxGeometry x="112" y="193.5" width="200" height="20" as="geometry" />
        </mxCell>
        <mxCell id="FtkUFHBReNDvAZ_2gTk3-10" value="build(InputStream in)" style="text;html=1;align=center;verticalAlign=middle;resizable=0;points=[];autosize=1;strokeColor=none;" vertex="1" parent="ARLmOl4ktkuHFDdU4ZW2-1">
          <mxGeometry x="385" y="145" width="130" height="20" as="geometry" />
        </mxCell>
        <mxCell id="FtkUFHBReNDvAZ_2gTk3-12" value="SqlSessionFactory 对象实例&amp;nbsp;" style="rounded=1;whiteSpace=wrap;html=1;align=center;fillColor=#f8cecc;strokeColor=#b85450;" vertex="1" parent="ARLmOl4ktkuHFDdU4ZW2-1">
          <mxGeometry x="690" y="190" width="160" height="35" as="geometry" />
        </mxCell>
        <mxCell id="FtkUFHBReNDvAZ_2gTk3-13" value="返回" style="text;html=1;align=center;verticalAlign=middle;resizable=0;points=[];autosize=1;strokeColor=none;" vertex="1" parent="ARLmOl4ktkuHFDdU4ZW2-1">
          <mxGeometry x="620" y="185" width="40" height="20" as="geometry" />
        </mxCell>
        <mxCell id="FtkUFHBReNDvAZ_2gTk3-15" value="内部逻辑" style="text;html=1;align=center;verticalAlign=middle;resizable=0;points=[];autosize=1;strokeColor=none;" vertex="1" parent="ARLmOl4ktkuHFDdU4ZW2-1">
          <mxGeometry x="550" y="235" width="60" height="20" as="geometry" />
        </mxCell>
        <mxCell id="FtkUFHBReNDvAZ_2gTk3-17" style="edgeStyle=elbowEdgeStyle;rounded=1;orthogonalLoop=1;jettySize=auto;elbow=vertical;html=1;exitX=0.5;exitY=1;exitDx=0;exitDy=0;entryX=0.5;entryY=0;entryDx=0;entryDy=0;" edge="1" parent="ARLmOl4ktkuHFDdU4ZW2-1" source="FtkUFHBReNDvAZ_2gTk3-16" target="FtkUFHBReNDvAZ_2gTk3-18">
          <mxGeometry relative="1" as="geometry">
            <mxPoint x="558" y="395" as="targetPoint" />
          </mxGeometry>
        </mxCell>
        <mxCell id="FtkUFHBReNDvAZ_2gTk3-16" value="创建XMLConfigBuidler 对象 - parser" style="rounded=1;whiteSpace=wrap;html=1;align=center;" vertex="1" parent="ARLmOl4ktkuHFDdU4ZW2-1">
          <mxGeometry x="456" y="315" width="204" height="30" as="geometry" />
        </mxCell>
        <mxCell id="FtkUFHBReNDvAZ_2gTk3-22" style="edgeStyle=elbowEdgeStyle;rounded=1;orthogonalLoop=1;jettySize=auto;elbow=vertical;html=1;dashed=1;" edge="1" parent="ARLmOl4ktkuHFDdU4ZW2-1" source="FtkUFHBReNDvAZ_2gTk3-18">
          <mxGeometry relative="1" as="geometry">
            <mxPoint x="770" y="450" as="targetPoint" />
          </mxGeometry>
        </mxCell>
        <mxCell id="FtkUFHBReNDvAZ_2gTk3-18" value="build(parser.parse())" style="rounded=1;whiteSpace=wrap;html=1;align=center;fillColor=#e1d5e7;strokeColor=#9673a6;" vertex="1" parent="ARLmOl4ktkuHFDdU4ZW2-1">
          <mxGeometry x="456" y="435" width="204" height="30" as="geometry" />
        </mxCell>
        <mxCell id="FtkUFHBReNDvAZ_2gTk3-21" value="&lt;h1&gt;XMLConfigBuilder&lt;/h1&gt;&lt;p&gt;XMLConfigBuilder 构造方法创建了XPathParser , 用来解析 mybatis-config.xml 文件&lt;/p&gt;&lt;p&gt;XMLConfigBuilder 的父类 BaseBuilder 持有了Configuration 的引用&lt;/p&gt;&lt;p&gt;持有DefaultReflectorFactory&amp;nbsp;&lt;/p&gt;" style="text;html=1;fillColor=#f5f5f5;spacing=5;spacingTop=-20;whiteSpace=wrap;overflow=hidden;rounded=0;align=left;fontColor=#333333;dashed=1;dashPattern=1 2;strokeColor=#994C00;" vertex="1" parent="ARLmOl4ktkuHFDdU4ZW2-1">
          <mxGeometry x="670" y="255" width="270" height="150" as="geometry" />
        </mxCell>
        <mxCell id="FtkUFHBReNDvAZ_2gTk3-23" value="parse() 方法" style="text;html=1;align=center;verticalAlign=middle;resizable=0;points=[];autosize=1;strokeColor=none;" vertex="1" parent="ARLmOl4ktkuHFDdU4ZW2-1">
          <mxGeometry x="670" y="425" width="80" height="20" as="geometry" />
        </mxCell>
        <mxCell id="FtkUFHBReNDvAZ_2gTk3-25" style="edgeStyle=elbowEdgeStyle;rounded=1;orthogonalLoop=1;jettySize=auto;elbow=vertical;html=1;" edge="1" parent="ARLmOl4ktkuHFDdU4ZW2-1" source="FtkUFHBReNDvAZ_2gTk3-24">
          <mxGeometry relative="1" as="geometry">
            <mxPoint x="915" y="535" as="targetPoint" />
          </mxGeometry>
        </mxCell>
        <mxCell id="FtkUFHBReNDvAZ_2gTk3-24" value="parseConfiguration(parser.evalNode(&quot;/configuration&quot;))" style="rounded=1;whiteSpace=wrap;html=1;align=left;fillColor=#fad7ac;strokeColor=#b46504;" vertex="1" parent="ARLmOl4ktkuHFDdU4ZW2-1">
          <mxGeometry x="770" y="435" width="290" height="33.75" as="geometry" />
        </mxCell>
        <mxCell id="FtkUFHBReNDvAZ_2gTk3-27" value="解析各种属性 - properties| settings | typeAliases | mappers" style="rounded=1;whiteSpace=wrap;html=1;align=left;fillColor=#d0cee2;strokeColor=#56517e;" vertex="1" parent="ARLmOl4ktkuHFDdU4ZW2-1">
          <mxGeometry x="840" y="534" width="315" height="31" as="geometry" />
        </mxCell>
        <mxCell id="FtkUFHBReNDvAZ_2gTk3-28" value="" style="endArrow=classic;html=1;entryX=1;entryY=1;entryDx=0;entryDy=0;" edge="1" parent="ARLmOl4ktkuHFDdU4ZW2-1" target="FtkUFHBReNDvAZ_2gTk3-18">
          <mxGeometry width="50" height="50" relative="1" as="geometry">
            <mxPoint x="780" y="585" as="sourcePoint" />
            <mxPoint x="710" y="515" as="targetPoint" />
          </mxGeometry>
        </mxCell>
        <mxCell id="FtkUFHBReNDvAZ_2gTk3-29" value="返回 Configuration 对象实例" style="edgeLabel;html=1;align=center;verticalAlign=middle;resizable=0;points=[];" vertex="1" connectable="0" parent="FtkUFHBReNDvAZ_2gTk3-28">
          <mxGeometry x="0.2083" y="-1" relative="1" as="geometry">
            <mxPoint x="2" y="14" as="offset" />
          </mxGeometry>
        </mxCell>
        <mxCell id="FtkUFHBReNDvAZ_2gTk3-30" value="填充Configuration 属性" style="edgeLabel;html=1;align=center;verticalAlign=middle;resizable=0;points=[];" vertex="1" connectable="0" parent="FtkUFHBReNDvAZ_2gTk3-28">
          <mxGeometry x="-0.4917" y="-1" relative="1" as="geometry">
            <mxPoint as="offset" />
          </mxGeometry>
        </mxCell>
        <mxCell id="FtkUFHBReNDvAZ_2gTk3-31" value="Actor" style="shape=umlActor;verticalLabelPosition=bottom;verticalAlign=top;html=1;outlineConnect=0;rounded=1;dashed=1;dashPattern=1 2;" vertex="1" parent="ARLmOl4ktkuHFDdU4ZW2-1">
          <mxGeometry x="40" y="100" width="20" height="35" as="geometry" />
        </mxCell>
      </root>
    </mxGraphModel>
  </diagram>
</mxfile>
